<?xml version="1.0" encoding="utf-8"?><svg version="1.1" id="Layer_1" xmlns="http://www.w3.org/2000/svg" xmlns:xlink="http://www.w3.org/1999/xlink" x="0px" y="0px" viewBox="0 0 122.88 94.18" style="enable-background:new 0 0 122.88 94.18" xml:space="preserve"><style type="text/css"><![CDATA[
	.st0{fill-rule:evenodd;clip-rule:evenodd;}
]]></style><g><path fill="#b9227a" class="st0" d="M34.02,65.66c5.81,12.12,23.43,12.54,28.99,0.07c-1.51-1.54-2.64-3.19-3.76-4.82 c-0.18-0.26-0.37-0.54-0.56-0.8c-2.69,2.13-5.94,3.49-10.19,3.48c-4.58-0.01-8.03-1.77-10.86-4.35c-0.17-0.15-0.34-0.31-0.5-0.47 c-0.4,1.13-0.92,2.47-1.47,3.73C35.13,63.69,34.56,64.84,34.02,65.66L34.02,65.66L34.02,65.66z M104.88,56.89V78.4l-8.6-5.04 l-8.66,5.47V56.89H75.39c-1.16,0-2.12,0.95-2.12,2.12v29.34c0,1.16,0.96,2.11,2.12,2.11h41.73c1.16,0,2.11-0.96,2.11-2.11V59 c0-1.16-0.95-2.12-2.11-2.12H104.88L104.88,56.89z M91.27,56.89v15.34l4.94-3.12l5.03,2.95V56.89H91.27L91.27,56.89z M75.39,53.24 h12.24h17.26h12.24c1.58,0,3.01,0.65,4.06,1.69l0.01,0.01c1.04,1.04,1.69,2.48,1.69,4.06v29.34c0,1.57-0.65,3.01-1.69,4.05 l-0.01,0.01c-1.05,1.04-2.49,1.69-4.05,1.69H93.79c-0.06,0.03-0.13,0.06-0.19,0.08H2.51c-3.54-0.7-5.39-13.17,8.9-21.14 c5.77-3.22,14.63-4.28,20.86-8.63c0.46-0.69,0.95-1.69,1.43-2.77c0.71-1.64,1.37-3.42,1.79-4.63c-1.75-2.05-3.23-4.37-4.67-6.66 l-4.73-6.14c-1.73-2.58-2.62-4.94-2.68-6.86c-0.03-0.91,0.13-1.74,0.46-2.46c0.36-0.76,0.89-1.39,1.63-1.89 c0.34-0.23,0.72-0.42,1.15-0.58c-0.31-4.07-0.42-7.83-0.23-12.14c0.1-1.02,0.3-2.04,0.58-3.06c5.72-20.36,35.63-22.69,39.84-6.77 c2.62,2.84,4.27,6.6,4.63,11.58L71.17,32.9l0,0c1.31,0.4,2.15,1.23,2.49,2.58c0.38,1.49-0.03,3.59-1.3,6.46l0,0 c-0.02,0.05-0.05,0.1-0.08,0.15l-5.39,7.49c-1.97,3.26-3.99,6.53-6.61,9.1c0.23,0.34,0.47,0.69,0.71,1.02 c1.07,1.56,2.14,3.13,3.53,4.53c0.05,0.04,0.08,0.08,0.11,0.13l0,0c1.57,1.11,3.25,2,4.99,2.77V59c0-1.59,0.65-3.03,1.69-4.07 C72.36,53.89,73.8,53.24,75.39,53.24L75.39,53.24z M29.38,34.6c-1.04,0.04-1.84,0.25-2.38,0.62c-0.31,0.21-0.54,0.47-0.69,0.79 c-0.16,0.35-0.24,0.78-0.23,1.27c0.04,1.44,0.8,3.32,2.25,5.48l0.02,0.03l0,0l4.73,6.14c1.89,3.02,3.88,6.08,6.35,8.34 c2.38,2.17,5.26,3.64,9.06,3.65c4.13,0.01,7.15-1.51,9.59-3.81c2.55-2.39,4.56-5.65,6.54-8.91l5.32-7.39 c1-2.27,1.35-3.78,1.13-4.66c-0.13-0.53-0.71-0.79-1.71-0.84c-0.21-0.01-0.43-0.01-0.65-0.01c-0.24,0.01-0.49,0.02-0.74,0.05 c-0.14,0.01-0.28,0-0.41-0.03c-0.47,0.03-0.96-0.01-1.46-0.08l1.82-6.69c-13.53,2.13-23.65-7.92-37.95-2.01l1.03,8.13 C30.42,34.69,29.89,34.67,29.38,34.6L29.38,34.6L29.38,34.6L29.38,34.6z"/></g></svg>